Coordinates
version=1
nRows=7
nColumns=40
inDegrees=yes

Units are S.I. units (second, meters, Newtons, ...)
If the header above contains a line with 'inDegrees', this indicates whether rotational values are in degrees (yes) or radians (no).

endheader
time	pelvis_tilt	pelvis_list	pelvis_rotation	pelvis_tx	pelvis_ty	pelvis_tz	hip_flexion_r	hip_adduction_r	hip_rotation_r	knee_angle_r	knee_angle_r_beta	ankle_angle_r	subtalar_angle_r	mtp_angle_r	hip_flexion_l	hip_adduction_l	hip_rotation_l	knee_angle_l	knee_angle_l_beta	ankle_angle_l	subtalar_angle_l	mtp_angle_l	lumbar_extension	lumbar_bending	lumbar_rotation	arm_flex_r	arm_add_r	arm_rot_r	elbow_flex_r	pro_sup_r	wrist_flex_r	wrist_dev_r	arm_flex_l	arm_add_l	arm_rot_l	elbow_flex_l	pro_sup_l	wrist_flex_l	wrist_dev_l
      8.65000000000000035527	    -11.11555977435758713057	      0.06197270858477714472	    179.27784392936916901817	      0.23834692901673132370	      0.74316939882516241944	     -0.93704368287403205784	     34.13665954669375679487	    -45.23163180287365747745	    -19.17687454568747185135	     60.42685093328840650884	      1.05464750539769114290	      3.39748062486851365449	      0.00000000000000000000	      0.00000000000000000000	     26.16676293025894395328	    -49.72303142927715668975	    -24.09639099849160714939	     52.01428232125088868543	      0.90782048456770692013	     -2.80479066453434988659	      0.00000000000000000000	      0.00000000000000000000	    -55.86788640376682479882	     -3.17996109615128785819	     -1.04934923021878900862	     37.28771512242207109011	      5.23841564960731709277	     28.31606959684420132817	      2.87813330929494215482	     10.07247856151383658130	      0.00000000000000000000	      0.00000000000000000000	     44.43590138105427911341	    -10.67909974352794577612	     82.58242505874369498997	      8.44937631173046455046	     83.21113792218226024033	      0.00000000000000000000	      0.00000000000000000000
      8.65499999999999936051	    -10.84714778932193723904	      0.24027905443636726757	    179.33296475913499534727	      0.23808532169067656015	      0.74468009468565721232	     -0.93665805751758457465	     33.87296983976886366463	    -45.02745260982868558131	    -19.74883883990672828190	     59.98662810036402248670	      1.04696416752070375900	      3.01899408212945541408	      0.00000000000000000000	      0.00000000000000000000	     26.21969139552458472053	    -49.71612369591436220162	    -24.19871653975445013884	     51.50737085763746136990	      0.89897321051154921445	     -3.02184122356531936759	      0.00000000000000000000	      0.00000000000000000000	    -55.39320921108939188571	     -2.97321139177815974008	     -0.92084574101980998240	     37.10629662600712208587	      5.17316027391373101096	     28.38657100096848395765	      2.87311466156403572114	     10.05434980874468742229	      0.00000000000000000000	      0.00000000000000000000	     44.26154411614726313928	    -10.64353266762487493224	     82.64902656879041842330	      8.46613466117739221772	     83.21499717873834356396	      0.00000000000000000000	      0.00000000000000000000
      8.66000000000000014211	    -10.60932808934215465513	      0.56756207809867709191	    179.38809618658882527598	      0.23833807167054524290	      0.74638967012228607523	     -0.93630726368406025362	     33.46445650383549974549	    -44.57978585770854351722	    -20.34058178784793824434	     59.42182903424863127384	      1.03710656420480096251	      2.88450137102579518000	      0.00000000000000000000	      0.00000000000000000000	     26.45734000272663877240	    -49.71775719371371593525	    -23.72115087067295391421	     50.99029170540124056288	      0.88994847681160615949	     -3.49277710123832862976	      0.00000000000000000000	      0.00000000000000000000	    -55.00070022980827388892	     -2.66304520050883120064	     -0.67355041559702688581	     36.97906773768305299654	      5.03883258896169206054	     28.62818928990905931187	      2.92866864135873061770	     10.03059301506662848169	      0.00000000000000000000	      0.00000000000000000000	     44.13844249614516712654	    -10.53687994147328943484	     82.74751299094246803634	      8.42356778911708303781	     83.19791653053864877165	      0.00000000000000000000	      0.00000000000000000000
      8.66499999999999914735	    -10.38944440191117202232	      0.61652162433302648559	    179.35485253517583714711	      0.23813142714877547079	      0.74802600207619751593	     -0.93600080734845403363	     33.30910635476523395937	    -44.38760833980315112512	    -20.61591546589297507808	     58.94045457299412049679	      1.02870499492089595428	      2.65328858292569069732	      0.00000000000000000000	      0.00000000000000000000	     26.44169890652435128686	    -49.70978434160043946122	    -24.07363405786293597544	     50.86784633279262379801	      0.88781140190575447146	     -3.52997413660565406701	      0.00000000000000000000	      0.00000000000000000000	    -54.58060550144183054044	     -2.61652177573659372456	     -0.61132667632754256193	     36.84049478710223013422	      4.97498088501846780218	     28.66908888076238071108	      2.89109704967953184962	     10.01831499190786445297	      0.00000000000000000000	      0.00000000000000000000	     43.96013534466946737211	    -10.50620347844453483788	     82.77988559228103326859	      8.44531606818067359654	     83.19983667586515707626	      0.00000000000000000000	      0.00000000000000000000
      8.66999999999999992895	    -10.13218122386834707527	      0.75736439857524562314	    179.34995454482105969873	      0.23801292677043958679	      0.74967286041548042430	     -0.93579177702828686414	     33.09993341068054917287	    -44.14160441988292404858	    -21.04656388819549661662	     58.44211940085984480220	      1.02000740538866008222	      2.35677358416719995304	      0.00000000000000000000	      0.00000000000000000000	     26.45433482271203118330	    -49.70507601051130563974	    -24.26088919874167615376	     50.46398207523428425247	      0.88076264088023903387	     -3.66406884191957926689	      0.00000000000000000000	      0.00000000000000000000	    -54.12462170752924350836	     -2.49822981044559666586	     -0.48025663674650836965	     36.66556176856687443433	      4.91814378836549259688	     28.74251882206471009340	      2.88290125817368991790	     10.00692966727530297533	      0.00000000000000000000	      0.00000000000000000000	     43.76002713003676092285	    -10.46352278272457603236	     82.80606907303642572060	      8.45313371381893752243	     83.19678194832077622323	      0.00000000000000000000	      0.00000000000000000000
      8.67500000000000071054	     -9.91541804657757630537	      0.91741596299294358996	    179.34499373072927141948	      0.23793844522535270714	      0.75139838227768451784	     -0.93544493038577469779	     32.82844139916733894324	    -43.83066191447941406523	    -21.44778527252933031377	     57.89844646622001533842	      1.01051852262521513204	      2.14153770657561892676	      0.00000000000000000000	      0.00000000000000000000	     26.44734099805412341766	    -49.69540603307404325051	    -24.36876717427478311606	     50.09014990267024813875	      0.87423803861911308921	     -3.85309023296370289913	      0.00000000000000000000	      0.00000000000000000000	    -53.70696390343600512551	     -2.35080194763997196716	     -0.31804014106386130356	     36.50557980887701603478	      4.82109152346834157754	     28.83135111011711870788	      2.88675000721643248980	      9.99681339637007404519	      0.00000000000000000000	      0.00000000000000000000	     43.55256766844738081090	    -10.38811837449418540302	     82.79146481141246738389	      8.45225311277257773668	     83.18781855137707736958	      0.00000000000000000000	      0.00000000000000000000
      8.67999999999999971578	     -9.70949338669801775836	      1.04655300137372608837	    179.32093805999821256592	      0.23783494697097495862	      0.75318970573609400621	     -0.93512099306028839685	     32.56676009413433092732	    -43.53962089167471560813	    -21.81608184623195256790	     57.33942071727772571421	      1.00076168270274501459	      1.92407133468918356556	      0.00000000000000000000	      0.00000000000000000000	     26.44882120658906643484	    -49.69323093793234136228	    -24.52996267918814865538	     49.80629069992942703493	      0.86928376091919956625	     -4.01612267397103117617	      0.00000000000000000000	      0.00000000000000000000	    -53.30413854644281457240	     -2.24101513800592666570	     -0.18261109290193558441	     36.34899336387126567161	      4.72360932014814238755	     28.90356859641579490017	      2.88129597301394246855	      9.98839979254966436883	      0.00000000000000000000	      0.00000000000000000000	     43.35915170211469416017	    -10.32080526486257099350	     82.74987373386707645295	      8.45473887527584011536	     83.17843316699098465961	      0.00000000000000000000	      0.00000000000000000000
